<svg id="Layer_1" data-name="Layer 1" xmlns="http://www.w3.org/2000/svg" xmlns:xlink="http://www.w3.org/1999/xlink" viewBox="0 0 418.67 97.33"><defs><style>.cls-1{fill:url(#linear-gradient);}.cls-10,.cls-12,.cls-16,.cls-18,.cls-19,.cls-2,.cls-20,.cls-26,.cls-27,.cls-28,.cls-29,.cls-3,.cls-30,.cls-31,.cls-4,.cls-5,.cls-6,.cls-7,.cls-8,.cls-9{stroke:#8dc63f;stroke-miterlimit:10;}.cls-10,.cls-12,.cls-16,.cls-18,.cls-19,.cls-2,.cls-20,.cls-26,.cls-3,.cls-4,.cls-5,.cls-6,.cls-7,.cls-8,.cls-9{stroke-width:0.5px;}.cls-2{fill:url(#radial-gradient);}.cls-3{fill:url(#radial-gradient-2);}.cls-4{fill:url(#radial-gradient-3);}.cls-5{fill:url(#radial-gradient-4);}.cls-6{fill:url(#radial-gradient-5);}.cls-7{fill:url(#radial-gradient-6);}.cls-8{fill:url(#radial-gradient-7);}.cls-9{fill:url(#linear-gradient-2);}.cls-10{fill:url(#linear-gradient-3);}.cls-11{fill:url(#radial-gradient-8);}.cls-12{fill:url(#radial-gradient-9);}.cls-13{fill:url(#radial-gradient-10);}.cls-14{fill:url(#radial-gradient-11);}.cls-15{fill:url(#radial-gradient-12);}.cls-16{fill:url(#radial-gradient-13);}.cls-17{fill:url(#radial-gradient-14);}.cls-18{fill:url(#radial-gradient-15);}.cls-19{fill:url(#radial-gradient-16);}.cls-20{fill:url(#radial-gradient-17);}.cls-21{fill:url(#radial-gradient-18);}.cls-22{fill:url(#radial-gradient-19);}.cls-23{fill:url(#radial-gradient-20);}.cls-24{fill:url(#radial-gradient-21);}.cls-25{fill:url(#radial-gradient-22);}.cls-26{fill:url(#radial-gradient-23);}.cls-27,.cls-28,.cls-30,.cls-31{stroke-width:0.5px;}.cls-27{fill:url(#radial-gradient-24);}.cls-28{fill:url(#radial-gradient-25);}.cls-29{fill:none;stroke-width:0.52px;}.cls-30{fill:url(#radial-gradient-26);}.cls-31{fill:url(#radial-gradient-27);}.cls-32{fill:url(#linear-gradient-4);}.cls-33{fill:url(#radial-gradient-28);}.cls-34{fill:url(#linear-gradient-5);}.cls-35{fill:url(#linear-gradient-6);}.cls-36{fill:url(#linear-gradient-7);}.cls-37{fill:url(#radial-gradient-29);}.cls-38{mask:url(#mask);}.cls-39{fill:url(#linear-gradient-8);}.cls-40{fill:url(#linear-gradient-9);}.cls-41{fill:#814f3a;}.cls-42{fill:url(#linear-gradient-10);}.cls-43{fill:url(#linear-gradient-11);}</style><linearGradient id="linear-gradient" y1="97.06" x2="1" y2="97.06" gradientTransform="translate(212.72 143.82) rotate(180) scale(1.14 1.18)" gradientUnits="userSpaceOnUse"><stop offset="0"/><stop offset="0.06" stop-color="#252525"/><stop offset="0.16" stop-color="#585858"/><stop offset="0.26" stop-color="#848484"/><stop offset="0.37" stop-color="#aaa"/><stop offset="0.48" stop-color="#c9c9c9"/><stop offset="0.59" stop-color="#e1e1e1"/><stop offset="0.71" stop-color="#f2f2f2"/><stop offset="0.84" stop-color="#fcfcfc"/><stop offset="1" stop-color="#fff"/></linearGradient><radialGradient id="radial-gradient" cx="156.35" cy="67.16" r="9.57" gradientUnits="userSpaceOnUse"><stop offset="0" stop-color="#4c4c4d"/><stop offset="0.02" stop-color="#474747"/><stop offset="0.16" stop-color="#2d2d2d"/><stop offset="0.3" stop-color="#191919"/><stop offset="0.47" stop-color="#0b0b0b"/><stop offset="0.67" stop-color="#020203"/><stop offset="1"/></radialGradient><radialGradient id="radial-gradient-2" cx="168.04" cy="67.13" r="9.65" xlink:href="#radial-gradient"/><radialGradient id="radial-gradient-3" cx="185.86" cy="67.25" r="10.07" xlink:href="#radial-gradient"/><radialGradient id="radial-gradient-4" cx="200.86" cy="67.12" r="9.72" xlink:href="#radial-gradient"/><radialGradient id="radial-gradient-5" cx="226.6" cy="67.06" r="11.54" xlink:href="#radial-gradient"/><radialGradient id="radial-gradient-6" cx="242.9" cy="67.05" r="10.03" xlink:href="#radial-gradient"/><radialGradient id="radial-gradient-7" cx="261.99" cy="66.95" r="9.57" xlink:href="#radial-gradient"/><linearGradient id="linear-gradient-2" x1="83.54" y1="47.54" x2="83.54" y2="78.79" gradientUnits="userSpaceOnUse"><stop offset="0" stop-color="#d1e4a5"/><stop offset="0.37" stop-color="#acd479"/><stop offset="0.38" stop-color="#abd477"/><stop offset="0.52" stop-color="#9ece5f"/><stop offset="0.66" stop-color="#95c94e"/><stop offset="0.81" stop-color="#90c743"/><stop offset="1" stop-color="#8ec640"/></linearGradient><linearGradient id="linear-gradient-3" x1="332.22" y1="47.54" x2="332.22" y2="78.8" xlink:href="#linear-gradient-2"/><radialGradient id="radial-gradient-8" cx="195.95" cy="32.21" r="15.09" gradientUnits="userSpaceOnUse"><stop offset="0" stop-color="#aeb0b7"/><stop offset="0.01" stop-color="#aeb0b7"/><stop offset="0.32" stop-color="#aaaaa8"/><stop offset="0.35" stop-color="#a9a9a6"/><stop offset="0.5" stop-color="#9a9e9e"/><stop offset="0.67" stop-color="#838c92"/><stop offset="1" stop-color="#657076"/></radialGradient><radialGradient id="radial-gradient-9" cx="196.47" cy="31.9" r="15.09" gradientUnits="userSpaceOnUse"><stop offset="0" stop-color="#4c4c4d"/><stop offset="0.04" stop-color="#484849"/><stop offset="0.46" stop-color="#212121"/><stop offset="0.8" stop-color="#090909"/><stop offset="1"/></radialGradient><radialGradient id="radial-gradient-10" cx="103.4" cy="32.48" r="18.05" xlink:href="#radial-gradient-8"/><radialGradient id="radial-gradient-11" cx="142.47" cy="32.48" r="15.2" xlink:href="#radial-gradient-8"/><radialGradient id="radial-gradient-12" cx="166.81" cy="32.48" r="15.47" xlink:href="#radial-gradient-8"/><radialGradient id="radial-gradient-13" cx="104.19" cy="32.12" r="18.05" xlink:href="#radial-gradient-9"/><radialGradient id="radial-gradient-14" cx="124.3" cy="32.48" r="13.63" xlink:href="#radial-gradient-8"/><radialGradient id="radial-gradient-15" cx="125.09" cy="32.12" r="13.63" xlink:href="#radial-gradient-9"/><radialGradient id="radial-gradient-16" cx="143.26" cy="32.12" r="15.2" xlink:href="#radial-gradient-9"/><radialGradient id="radial-gradient-17" cx="167.43" cy="32.12" r="15.47" xlink:href="#radial-gradient-9"/><radialGradient id="radial-gradient-18" cx="232.03" cy="32.49" r="15.12" xlink:href="#radial-gradient-8"/><radialGradient id="radial-gradient-19" cx="252.5" cy="32.54" r="15.68" xlink:href="#radial-gradient-8"/><radialGradient id="radial-gradient-20" cx="279.49" cy="32.48" r="15.47" xlink:href="#radial-gradient-8"/><radialGradient id="radial-gradient-21" cx="300.67" cy="32.48" r="14.13" xlink:href="#radial-gradient-8"/><radialGradient id="radial-gradient-22" cx="324.19" cy="32.48" r="15.47" xlink:href="#radial-gradient-8"/><radialGradient id="radial-gradient-23" cx="232.6" cy="32.29" r="15.12" xlink:href="#radial-gradient-9"/><radialGradient id="radial-gradient-24" cx="253.07" cy="32.35" r="15.68" gradientTransform="translate(-2.76) scale(1.01 1)" xlink:href="#radial-gradient-9"/><radialGradient id="radial-gradient-25" cx="280.06" cy="32.29" r="15.47" xlink:href="#radial-gradient-9"/><radialGradient id="radial-gradient-26" cx="301.23" cy="32.29" r="14.13" xlink:href="#radial-gradient-9"/><radialGradient id="radial-gradient-27" cx="324.76" cy="32.29" r="15.47" xlink:href="#radial-gradient-9"/><linearGradient id="linear-gradient-4" x1="211.31" y1="31.38" x2="212.68" y2="33.08" gradientUnits="userSpaceOnUse"><stop offset="0" stop-color="#fff"/><stop offset="0.08" stop-color="#fbfdfb"/><stop offset="0.17" stop-color="#f0f8ef"/><stop offset="0.25" stop-color="#ddf0db"/><stop offset="0.33" stop-color="#c2e4bf"/><stop offset="0.41" stop-color="#a0d59c"/><stop offset="0.49" stop-color="#78c372"/><stop offset="0.53" stop-color="#64b86b"/><stop offset="0.63" stop-color="#40a45d"/><stop offset="0.72" stop-color="#249553"/><stop offset="0.81" stop-color="#108a4b"/><stop offset="0.91" stop-color="#048347"/><stop offset="1" stop-color="#008145"/></linearGradient><radialGradient id="radial-gradient-28" cx="0" cy="97.33" r="1" gradientTransform="matrix(0.63, -0.55, -0.57, -0.65, 269.47, 94.1)" gradientUnits="userSpaceOnUse"><stop offset="0" stop-color="#fffeee"/><stop offset="0.01" stop-color="#fffeee"/><stop offset="0.28" stop-color="#f3f4e9"/><stop offset="0.75" stop-color="#d7dade"/><stop offset="0.88" stop-color="#dcd8d4"/><stop offset="1" stop-color="#dcd8d4"/></radialGradient><linearGradient id="linear-gradient-5" y1="97.33" x2="1" y2="97.33" gradientTransform="matrix(-0.95, 0.83, -0.86, -0.99, 298.14, 126.05)" gradientUnits="userSpaceOnUse"><stop offset="0" stop-color="#008145"/><stop offset="0.09" stop-color="#048346"/><stop offset="0.18" stop-color="#108a4b"/><stop offset="0.27" stop-color="#249552"/><stop offset="0.36" stop-color="#40a45d"/><stop offset="0.44" stop-color="#63b86a"/><stop offset="0.49" stop-color="#78c372"/><stop offset="0.53" stop-color="#64b86b"/><stop offset="0.63" stop-color="#40a45d"/><stop offset="0.72" stop-color="#249553"/><stop offset="0.81" stop-color="#108a4b"/><stop offset="0.91" stop-color="#048347"/><stop offset="1" stop-color="#008145"/></linearGradient><linearGradient id="linear-gradient-6" x1="209.34" y1="29.28" x2="210.77" y2="30.88" gradientUnits="userSpaceOnUse"><stop offset="0" stop-color="#b7b7b7"/><stop offset="0.1" stop-color="#d2d2d2"/><stop offset="0.21" stop-color="#e7e7e7"/><stop offset="0.32" stop-color="#f4f4f4"/><stop offset="0.42" stop-color="#f8f8f8"/><stop offset="0.49" stop-color="#f2f2f2"/><stop offset="0.6" stop-color="#e0e0e0"/><stop offset="0.72" stop-color="#c3c3c3"/><stop offset="0.81" stop-color="#aaa"/></linearGradient><linearGradient id="linear-gradient-7" x1="209.96" y1="30.79" x2="211.37" y2="32.42" gradientUnits="userSpaceOnUse"><stop offset="0" stop-color="#f6f6f6"/><stop offset="0.04" stop-color="#d9dadb"/><stop offset="0.47" stop-color="#020202"/><stop offset="0.52" stop-color="#0f0f0f"/><stop offset="0.6" stop-color="#313131"/><stop offset="0.72" stop-color="#686868"/><stop offset="0.86" stop-color="#b3b4b4"/><stop offset="0.96" stop-color="#edeeee"/><stop offset="1" stop-color="#fff"/></linearGradient><radialGradient id="radial-gradient-29" cx="0" cy="97.33" r="1" gradientTransform="matrix(0.57, -0.49, -0.51, -0.59, 262.06, 87.34)" xlink:href="#radial-gradient-8"/><mask id="mask" x="199.13" y="15.47" width="28.31" height="28.3" maskUnits="userSpaceOnUse"><rect class="cls-1" x="203.24" y="19.6" width="20.08" height="20.04" transform="translate(33.01 147.39) rotate(-41.06)"/></mask><linearGradient id="linear-gradient-8" y1="97.33" x2="1" y2="97.33" gradientTransform="matrix(-0.86, 0.75, -0.77, -0.89, 287.87, 116.09)" gradientUnits="userSpaceOnUse"><stop offset="0" stop-color="#231f20"/><stop offset="0.09" stop-color="#231f20"/><stop offset="1" stop-color="#231f20"/></linearGradient><linearGradient id="linear-gradient-9" x1="214.39" y1="29.09" x2="215.52" y2="30.39" gradientUnits="userSpaceOnUse"><stop offset="0" stop-color="#d7b1a1"/><stop offset="0" stop-color="#d5ae9e"/><stop offset="0.06" stop-color="#b18473"/><stop offset="0.11" stop-color="#976653"/><stop offset="0.16" stop-color="#875440"/><stop offset="0.19" stop-color="#814d39"/><stop offset="0.25" stop-color="#86533f"/><stop offset="0.33" stop-color="#95634f"/><stop offset="0.42" stop-color="#ac7d6a"/><stop offset="0.52" stop-color="#cda290"/><stop offset="0.53" stop-color="#d1a694"/><stop offset="0.59" stop-color="#c49481"/><stop offset="0.68" stop-color="#b67f6c"/><stop offset="0.78" stop-color="#ad735f"/><stop offset="0.86" stop-color="#aa6f5b"/><stop offset="0.95" stop-color="#c69684"/><stop offset="1" stop-color="#d1a694"/></linearGradient><linearGradient id="linear-gradient-10" x1="212.33" y1="27.1" x2="213.35" y2="28.27" gradientUnits="userSpaceOnUse"><stop offset="0" stop-color="#d7b1a1"/><stop offset="0.02" stop-color="#cfa594"/><stop offset="0.09" stop-color="#bb8875"/><stop offset="0.14" stop-color="#ae7662"/><stop offset="0.18" stop-color="#aa6f5b"/><stop offset="0.51" stop-color="#ad7660"/><stop offset="0.59" stop-color="#9a644f"/><stop offset="0.69" stop-color="#88533f"/><stop offset="0.76" stop-color="#814d39"/><stop offset="0.8" stop-color="#86533f"/><stop offset="0.86" stop-color="#95634f"/><stop offset="0.92" stop-color="#ac7d6a"/><stop offset="0.99" stop-color="#cda290"/><stop offset="1" stop-color="#d1a694"/></linearGradient><linearGradient id="linear-gradient-11" x1="212.62" y1="28.69" x2="213.69" y2="29.88" gradientUnits="userSpaceOnUse"><stop offset="0" stop-color="#d7b1a1"/><stop offset="0.04" stop-color="#cca190"/><stop offset="0.16" stop-color="#b37d6a"/><stop offset="0.21" stop-color="#aa6f5b"/><stop offset="0.31" stop-color="#915a46"/><stop offset="0.39" stop-color="#814d39"/><stop offset="0.53" stop-color="#87523e"/><stop offset="0.71" stop-color="#97624d"/><stop offset="0.88" stop-color="#ad7660"/><stop offset="0.92" stop-color="#b5806b"/><stop offset="0.98" stop-color="#c99b88"/><stop offset="1" stop-color="#d1a694"/></linearGradient></defs><title>Artboard 1</title><path class="cls-2" d="M154.76,64.53a60.91,60.91,0,0,0,4.72-8.27.91.91,0,0,1,.94-.41l2.67.12a.71.71,0,0,1,.34.13c.28.22.29.55,0,1-.14.25-.29.51-.45.77a122.68,122.68,0,0,1-7.53,11.44l-2.17,8.55a.91.91,0,0,1-1,.69h-2.64a.71.71,0,0,1-.36-.09.74.74,0,0,1-.26-.88l2.17-8.65a37.6,37.6,0,0,0-.26-3.89,56.37,56.37,0,0,0-1.23-7.76,1.24,1.24,0,0,1-.05-.8.74.74,0,0,1,.73-.58l2.47-.14a1.72,1.72,0,0,1,.42,0c.25.05.41.3.48.73A64.9,64.9,0,0,1,154.76,64.53Z"/><path class="cls-3" d="M161.62,65.75a20,20,0,0,1,3-6.82c1.62-2.23,3.44-3.34,5.46-3.35h.28a5,5,0,0,1,3.73,1.56q1.2,1.39,1.2,4.77a29.21,29.21,0,0,1-1.05,7,22.67,22.67,0,0,1-1.95,5.26c-1.61,3-3.63,4.48-6.05,4.48a5.22,5.22,0,0,1-3.81-1.26q-1.65-1.62-1.65-5.78A23.5,23.5,0,0,1,161.62,65.75Zm4.45,1a24.33,24.33,0,0,0-.93,5.82c0,1.61.36,2.41,1.07,2.41a2.42,2.42,0,0,0,.47-.07,3.21,3.21,0,0,0,1.44-1.51,23.64,23.64,0,0,0,1.93-5.56,28.56,28.56,0,0,0,1-6.06q0-2-1-2a2.3,2.3,0,0,0-1.94,1.35A23,23,0,0,0,166.07,66.73Z"/><path class="cls-4" d="M183.05,78.71c-2,0-3.4-.43-4.26-1.31a3.6,3.6,0,0,1-.54-.67c-1.05-1.6-1.13-4.17-.23-7.69l3.21-12.54a.88.88,0,0,1,.93-.69h2.78a.67.67,0,0,1,.63,1l-3.14,12.6a15.93,15.93,0,0,0-.62,4.57c.09,1.09.6,1.64,1.51,1.64a1.87,1.87,0,0,0,1.33-.55c.8-.76,1.56-2.68,2.3-5.76l3.23-12.79a.9.9,0,0,1,.94-.69h2.54a.67.67,0,0,1,.62,1l-3,12.16A24.5,24.5,0,0,1,189,75.07,6.62,6.62,0,0,1,183.05,78.71Z"/><path class="cls-5" d="M197.71,59.51h-1.07a.87.87,0,0,1-.41-.11.62.62,0,0,1-.25-.78l.56-2.2a.8.8,0,0,1,.11-.25.72.72,0,0,1,.61-.39h6.62a6.35,6.35,0,0,1,2.38.41,3.64,3.64,0,0,1,2.35,3.71,12.36,12.36,0,0,1-.75,4,7.49,7.49,0,0,1-1.81,3.22A8.88,8.88,0,0,1,204,68.68l1.29,8.49a.67.67,0,0,1,.24.45.79.79,0,0,1-.88.83h-2.48a.92.92,0,0,1-.32-.07c-.44-.19-.71-.7-.82-1.5l-.95-7.56-.54,0-2.13,8.41a.89.89,0,0,1-.94.69h-2.66a.74.74,0,0,1-.36-.09.75.75,0,0,1-.27-.87Zm2.6,6.69,1.18-.17a3,3,0,0,0,.51-.09,3.15,3.15,0,0,0,1.69-1.09,4.39,4.39,0,0,0,.51-1.12,13.67,13.67,0,0,0,.56-3.45.59.59,0,0,0-.25-.46,1.21,1.21,0,0,0-.54-.24,10.25,10.25,0,0,0-1,0H202Z"/><path class="cls-6" d="M237.47,55.69h-2.81c-.33,0-.52.11-.57.34a2.5,2.5,0,0,0-.05.41,35.51,35.51,0,0,1-1.5,8.07,27.35,27.35,0,0,1-4.18,9.17.28.28,0,0,1-.06.08,33.29,33.29,0,0,1-.07-8.38,35.51,35.51,0,0,1,1.85-8.74c.13-.58,0-.89-.41-.94h-2.85a1,1,0,0,0-1,.49,3.27,3.27,0,0,0-.14.33c-.17.61-.4,1.47-.62,2.55a37.71,37.71,0,0,1-3.19,8.85,35.48,35.48,0,0,1-3.16,5.36q-.48-3.6,1.16-10A33.05,33.05,0,0,1,222,57.2l.13-.26c.35-.65.34-1,0-1.19l-.21,0h-3.08a.9.9,0,0,0-.84.44,33,33,0,0,0-2.71,10,29.93,29.93,0,0,0,.21,10.3c.12.48.24.93.38,1.34a.92.92,0,0,0,.91.63h2.35a30.43,30.43,0,0,0,4.66-6.19c.17-.3.34-.58.5-.87a23.41,23.41,0,0,0,1,6.42c.14.37.34.57.6.61l.19,0h2.18q3.08-1.32,5.88-7a43.54,43.54,0,0,0,3.53-10,23.77,23.77,0,0,0,.68-4.92c0-.38-.1-.62-.28-.7a1.64,1.64,0,0,0-.55-.08h0"/><path class="cls-7" d="M241.42,72.26l-2.68,5.52a1.1,1.1,0,0,1-1.16.63l-2.38-.09h-.07c-.65,0-.86-.41-.61-1.1l10.6-20.5a2.53,2.53,0,0,1,.25-.35,1.84,1.84,0,0,1,1.39-.64l3.45,0a1.16,1.16,0,0,1,.53.09,1.35,1.35,0,0,1,.65,1.41l-1.12,20.46c-.07.44-.38.67-.94.69h-2.54l-.22,0c-.4-.08-.56-.36-.5-.83l.34-5.26Zm1.83-3.73h3.4l.52-8.07Z"/><path class="cls-8" d="M260.4,64.31a62.8,62.8,0,0,0,4.73-8.26c.14-.3.45-.43.93-.41l2.67.12a.7.7,0,0,1,.34.12c.29.22.3.55,0,1l-.46.77a123.28,123.28,0,0,1-7.52,11.44L259,77.64a.92.92,0,0,1-1,.7h-2.64a.74.74,0,0,1-.36-.09.76.76,0,0,1-.26-.88l2.18-8.65c0-.94-.09-2.24-.26-3.89a56.1,56.1,0,0,0-1.24-7.76,1.24,1.24,0,0,1,0-.8.75.75,0,0,1,.73-.58l2.48-.13a1.75,1.75,0,0,1,.41,0c.25,0,.41.3.49.74A64.45,64.45,0,0,1,260.4,64.31Z"/><polygon class="cls-9" points="23.22 54.7 72.07 64.91 69.92 78.64 139.27 78.79 143.85 56.06 78.33 56.23 79.85 47.54 23.22 54.7"/><polygon class="cls-10" points="393.51 54.7 344.65 64.91 346.8 78.64 270.93 78.8 274.54 56.13 338.39 56.23 336.87 47.54 393.51 54.7"/><path class="cls-11" d="M189.11,40.47c0-2.44,3-4.43,4.76-5.66l2.85,4.67c-1.36,1.08-3.58,2.9-5.44,2.9a1.94,1.94,0,0,1-2.17-1.91M195.49,24A2.59,2.59,0,0,1,198,21.5c1.17,0,2.08.5,2.08,1.86s-3.49,3.53-3.49,3.53a8.25,8.25,0,0,1-1.09-2.9m-6.7.32a11.48,11.48,0,0,0,2,6c-4.34,2.67-8.6,5.71-8.6,11.32,0,4.62,3.71,6.84,8,6.84,3.89,0,6.92-1.5,9.91-3.9l2,3.49h7.75l-4.67-7.92,4.65-4.3a5,5,0,0,1-2.55-1.77c-1.24-1.47-.89-2.18-.89-2.18L202,35.31l-2.22-3.75c3.17-2.27,6.7-4.4,6.7-8.74,0-4.58-3.94-6.89-8.1-6.89-4.76,0-9.56,3.22-9.56,8.38"/><path class="cls-12" d="M210.27,35.54l-4.65,4.3,4.66,7.93h-7.74l-2-3.49c-3,2.4-6,3.89-9.92,3.89-4.25,0-8-2.22-8-6.83,0-5.62,4.26-8.65,8.61-11.32a11.39,11.39,0,0,1-2-6c0-5.16,4.8-8.38,9.55-8.38,4.17,0,8.11,2.31,8.11,6.88,0,4.35-3.54,6.48-6.7,8.74L202.49,35l3.85-3.7a5.43,5.43,0,0,0,1.37,2.47A4.93,4.93,0,0,0,210.27,35.54Zm-15.88-1c-1.72,1.22-4.75,3.21-4.75,5.66a1.92,1.92,0,0,0,2.17,1.9c1.86,0,4.07-1.81,5.43-2.9Zm4.12-13.31A2.57,2.57,0,0,0,196,23.68a8.33,8.33,0,0,0,1.09,2.9s3.48-2.09,3.48-3.53S199.69,21.19,198.51,21.19Z"/><path class="cls-13" d="M101.07,20a58.82,58.82,0,0,1-5,13.82,56.75,56.75,0,0,1-5,8.38q-.73-5.62,1.84-15.61a52.07,52.07,0,0,1,3.23-9.55,3.5,3.5,0,0,1,.2-.39c.55-1,.54-1.65-.05-1.86a1,1,0,0,0-.34-.05H91.17a1.38,1.38,0,0,0-1.32.68A51.1,51.1,0,0,0,85.59,31a46.47,46.47,0,0,0,.29,16.1c.18.75.38,1.45.59,2.1a1.42,1.42,0,0,0,1.42,1h3.68a47.43,47.43,0,0,0,7.3-9.67c.27-.46.54-.91.78-1.35a36.49,36.49,0,0,0,1.62,10q.32.87.93,1a1.51,1.51,0,0,0,.3,0h3.4q4.81-2.05,9.22-10.85a68,68,0,0,0,5.56-15.71A36.89,36.89,0,0,0,121.75,16c0-.6-.14-1-.44-1.1a2.55,2.55,0,0,0-.88-.12H116c-.52,0-.82.18-.9.53a3.51,3.51,0,0,0-.08.64,55.29,55.29,0,0,1-2.37,12.62q-2.77,9.51-6.57,14.33L106,43q-.82-3.63-.08-13.11a56.07,56.07,0,0,1,2.91-13.67c.22-.9,0-1.39-.64-1.47h-4.44a1.55,1.55,0,0,0-1.5.76,4,4,0,0,0-.23.51C101.78,17,101.42,18.31,101.07,20Z"/><path class="cls-14" d="M144.27,20.63h1.44a16.29,16.29,0,0,1,1.65.07,1.83,1.83,0,0,1,.83.39.91.91,0,0,1,.39.71,21.49,21.49,0,0,1-.88,5.4,7.26,7.26,0,0,1-.81,1.76,4.87,4.87,0,0,1-2.64,1.68,4.13,4.13,0,0,1-.81.15l-1.83.27Zm-7.4-5.88a1.13,1.13,0,0,0-1,.59,1.92,1.92,0,0,0-.17.4l-.88,3.44a1,1,0,0,0,.39,1.22,1.21,1.21,0,0,0,.64.18h1.67l-7.18,28.13a1.16,1.16,0,0,0,.41,1.37,1.1,1.1,0,0,0,.57.14h4.16A1.38,1.38,0,0,0,137,49.15L140.35,36l.83,0,1.47,11.82c.17,1.26.59,2,1.28,2.36a1.46,1.46,0,0,0,.49.09h3.89a1.2,1.2,0,0,0,1.37-1.28,1.05,1.05,0,0,0-.37-.72l-2-13.28a13.75,13.75,0,0,0,3.26-2.39,11.94,11.94,0,0,0,2.85-5,19.43,19.43,0,0,0,1.18-6.3q0-4.32-3.67-5.82a10,10,0,0,0-3.71-.64Z"/><path class="cls-15" d="M160.3,14.75q-.62,0-.75.27a2.68,2.68,0,0,0-.23.71l-.79,3.08q-.42,1.57.57,1.74a2,2,0,0,0,.36,0h1.74l-7.14,28.14a1.14,1.14,0,0,0,.39,1.36,1.2,1.2,0,0,0,.59.14h15a1.69,1.69,0,0,0,1.4-.78,2.17,2.17,0,0,0,.26-.59l.64-2.89c.21-1-.16-1.55-1.12-1.57h-9.39l2.66-10.48h8.71a1.56,1.56,0,0,0,1.32-.79,2,2,0,0,0,.24-.59l.59-2.89c.21-1-.13-1.55-1-1.57H166l1.9-7.49h9.38a1.67,1.67,0,0,0,1.4-.79,1.89,1.89,0,0,0,.27-.58l.64-2.9c.21-1-.17-1.55-1.13-1.56Z"/><path class="cls-16" d="M101.87,19.65c.34-1.7.7-3,1-4a3.92,3.92,0,0,1,.22-.51,1.56,1.56,0,0,1,1.5-.76H109c.64.08.85.57.64,1.47a55.16,55.16,0,0,0-2.91,13.67q-.75,9.48.07,13.11a.63.63,0,0,0,.1-.12q3.8-4.83,6.56-14.34a56,56,0,0,0,2.38-12.61,3.47,3.47,0,0,1,.07-.64q.12-.54.9-.54h4.4a2.63,2.63,0,0,1,.88.12c.29.13.44.5.44,1.11a36.43,36.43,0,0,1-1.08,7.69A68.39,68.39,0,0,1,115.92,39q-4.41,8.8-9.22,10.86h-3.41a1.53,1.53,0,0,1-.3,0c-.41-.06-.72-.38-.93-.95a36.57,36.57,0,0,1-1.62-10.05q-.36.66-.78,1.35a47.44,47.44,0,0,1-7.3,9.68H88.68a1.44,1.44,0,0,1-1.42-1c-.21-.65-.41-1.36-.59-2.11a46.46,46.46,0,0,1-.29-16.1,51.32,51.32,0,0,1,4.26-15.6A1.39,1.39,0,0,1,92,14.38h4.8a1.33,1.33,0,0,1,.34,0c.59.21.61.83,0,1.86-.06.12-.13.25-.19.39a51.84,51.84,0,0,0-3.24,9.56q-2.57,10-1.84,15.61a56.06,56.06,0,0,0,5-8.38A58.89,58.89,0,0,0,101.87,19.65Z"/><path class="cls-17" d="M126.63,14.75a1.39,1.39,0,0,0-1.47,1.07l-8.33,32.89a1.17,1.17,0,0,0,.41,1.37,1,1,0,0,0,.56.14h4.13a1.38,1.38,0,0,0,1.46-1.07l8.38-32.88a1,1,0,0,0-1-1.52Z"/><path class="cls-18" d="M126,15.46a1.41,1.41,0,0,1,1.47-1.08h4.17a1,1,0,0,1,.56.15,1.17,1.17,0,0,1,.42,1.37l-8.38,32.88a1.4,1.4,0,0,1-1.46,1.08h-4.14a1,1,0,0,1-.55-.15,1.15,1.15,0,0,1-.42-1.37Z"/><path class="cls-19" d="M138.35,20.21h-1.67a1.24,1.24,0,0,1-.63-.17,1,1,0,0,1-.4-1.22l.89-3.44a1.27,1.27,0,0,1,.17-.4,1.13,1.13,0,0,1,.95-.6H148a10.07,10.07,0,0,1,3.72.65q3.66,1.49,3.66,5.82a19.21,19.21,0,0,1-1.18,6.3,11.89,11.89,0,0,1-2.85,5,13.92,13.92,0,0,1-3.25,2.39l2,13.28a1.11,1.11,0,0,1,.38.72,1.22,1.22,0,0,1-1.38,1.29h-3.88a1.19,1.19,0,0,1-.49-.1c-.69-.31-1.12-1.09-1.28-2.35L142,35.58l-.84.06-3.35,13.15a1.4,1.4,0,0,1-1.47,1.07h-4.17a1,1,0,0,1-.56-.15,1.15,1.15,0,0,1-.42-1.36Zm4.05,10.48,1.84-.27a5.07,5.07,0,0,0,.81-.14,5,5,0,0,0,2.64-1.69,7,7,0,0,0,.8-1.76,21.57,21.57,0,0,0,.89-5.4.91.91,0,0,0-.4-.71,1.83,1.83,0,0,0-.83-.39c-.2,0-.74,0-1.64-.07h-1.45Z"/><path class="cls-20" d="M166.6,27.71H175c.9,0,1.25.54,1,1.57l-.59,2.89a2.22,2.22,0,0,1-.24.59,1.58,1.58,0,0,1-1.32.78h-8.71L162.46,44h9.39c1,0,1.33.54,1.12,1.57l-.63,2.89a2.05,2.05,0,0,1-.27.59,1.69,1.69,0,0,1-1.4.78h-15a1.2,1.2,0,0,1-.59-.15,1.13,1.13,0,0,1-.39-1.36l7.14-28.14h-1.74l-.36,0c-.66-.12-.84-.7-.57-1.74l.79-3.09a3,3,0,0,1,.23-.71q.14-.27.75-.27h18.14c1,0,1.34.54,1.13,1.57l-.64,2.89a1.94,1.94,0,0,1-.27.59,1.68,1.68,0,0,1-1.4.78H168.5Z"/><path class="cls-21" d="M226.87,19.45a29.65,29.65,0,0,0-4.78,10.85,41.72,41.72,0,0,0-1.39,9.83,15,15,0,0,0,1.15,6.27,7.32,7.32,0,0,0,2.73,3.2,6,6,0,0,0,3.12,1,10.09,10.09,0,0,0,6.76-2.38,26.42,26.42,0,0,0,4.7-5.93,1.52,1.52,0,0,0,.22-1.63.82.82,0,0,0-.36-.31l-4-1.75c-.61-.28-1.08-.25-1.39.08a5.05,5.05,0,0,0-.61,1,21.43,21.43,0,0,1-2.72,4.39,7.42,7.42,0,0,1-.87.74H229c-.83-.25-1.25-1.7-1.25-4.34a34.74,34.74,0,0,1,1.3-8.58q2.88-11,5.9-11a2.09,2.09,0,0,1,.59.1,13.87,13.87,0,0,1,.93,3.6c0,.31.07.66.1,1a1.16,1.16,0,0,0,.78,1.08,1.23,1.23,0,0,0,.77.05l4.27-1.28q1.06-.43,1-1.32a14.84,14.84,0,0,0-1.8-6.54,6.74,6.74,0,0,0-6.24-3.2q-4.53,0-8.45,5.1"/><path class="cls-22" d="M259.21,22.21l-.84,12.63H253ZM264,14.8l-5.39,0a2.89,2.89,0,0,0-2.18,1,3.75,3.75,0,0,0-.4.54l-16.63,32c-.4,1.08-.08,1.66.95,1.73h.1l3.73.14a1.71,1.71,0,0,0,1.82-1l4.2-8.63H258l-.55,8.23c-.1.74.16,1.17.78,1.3a1.94,1.94,0,0,0,.34,0h4c.88,0,1.37-.39,1.47-1.07l1.81-32c.05-1.13-.28-1.87-1-2.21a1.64,1.64,0,0,0-.71-.15H264"/><path class="cls-23" d="M277.1,34.45c2.22,0,3.59.21,4.09.65.93.8,1.07,2.31.4,4.52s-1.91,3.69-3.56,4.3a8.14,8.14,0,0,1-2.3.42l-1.15,0Zm1.24-4.9,2.28-9h1.71q2.26,0,2.37,2a8,8,0,0,1-.12,1.45c-.66,3.47-2.22,5.31-4.7,5.52a6.05,6.05,0,0,1-.63,0Zm2.37-14.8h-7.5a1.12,1.12,0,0,0-1,.59,1.5,1.5,0,0,0-.17.4l-.93,3.54c-.13.45.08.82.63,1.1a1.92,1.92,0,0,0,.84.2h1.27l-7.14,28.14a1.15,1.15,0,0,0,.41,1.36,1.07,1.07,0,0,0,.57.14h5.13c2.69,0,4.43,0,5.23-.14a10.13,10.13,0,0,0,5.58-2.49,13.78,13.78,0,0,0,3.74-5.77,14.54,14.54,0,0,0,.76-3.08c.29-2.68,0-4.57-.89-5.64a5,5,0,0,0-.81-.73,7.8,7.8,0,0,0,3.86-3.25,13.71,13.71,0,0,0,1.89-5.8,13,13,0,0,0,.07-1.37,6.29,6.29,0,0,0-4-6.21,13.44,13.44,0,0,0-5.47-1Z"/><path class="cls-24" d="M301.37,14.75a1.39,1.39,0,0,0-1.47,1.08l-8.38,32.89a1.17,1.17,0,0,0,.42,1.36,1,1,0,0,0,.56.14h15a1.78,1.78,0,0,0,1.66-1.37l.64-2.89c.21-1-.16-1.55-1.13-1.57H299.3l7.19-28.12a1.18,1.18,0,0,0-.41-1.38,1.13,1.13,0,0,0-.56-.14Z"/><path class="cls-25" d="M317.68,14.75q-.62,0-.75.27a2.68,2.68,0,0,0-.23.71l-.79,3.08c-.27,1.05-.09,1.63.57,1.74a2,2,0,0,0,.36,0h1.75l-7.14,28.14a1.12,1.12,0,0,0,.38,1.36,1.2,1.2,0,0,0,.59.14h15a1.69,1.69,0,0,0,1.4-.78,1.94,1.94,0,0,0,.27-.59l.63-2.89c.21-1-.16-1.55-1.12-1.57h-9.39l2.66-10.48h8.71a1.56,1.56,0,0,0,1.32-.79,2.32,2.32,0,0,0,.25-.59l.58-2.89c.21-1-.13-1.55-1-1.57h-8.35l1.9-7.49h9.38a1.67,1.67,0,0,0,1.4-.79,1.89,1.89,0,0,0,.27-.58l.64-2.9c.21-1-.17-1.55-1.13-1.56Z"/><path class="cls-26" d="M243.93,23.89c0,.59-.28,1-1,1.33l-4.26,1.28a1.33,1.33,0,0,1-.78-.05,1.17,1.17,0,0,1-.77-1.09c0-.37-.07-.72-.1-1a13.51,13.51,0,0,0-.94-3.6,1.7,1.7,0,0,0-.59-.1q-3,0-5.89,11.05a34.73,34.73,0,0,0-1.3,8.57c0,2.65.41,4.1,1.25,4.34H230a6.5,6.5,0,0,0,.86-.74,21.64,21.64,0,0,0,2.73-4.38,4.72,4.72,0,0,1,.61-1c.31-.32.77-.35,1.39-.08l4,1.75a.87.87,0,0,1,.37.32,1.52,1.52,0,0,1-.22,1.63,26.7,26.7,0,0,1-4.7,5.93,10.11,10.11,0,0,1-6.76,2.38,6,6,0,0,1-3.12-1,7.41,7.41,0,0,1-2.74-3.2,15.22,15.22,0,0,1-1.15-6.28,41.78,41.78,0,0,1,1.4-9.82,29.4,29.4,0,0,1,4.78-10.85q3.92-5.1,8.45-5.1a6.77,6.77,0,0,1,6.24,3.2,15,15,0,0,1,1.8,6.53"/><path class="cls-27" d="M250.58,40.48l-4.25,8.63a1.74,1.74,0,0,1-1.84,1l-3.77-.14h-.1c-1-.08-1.36-.65-1-1.73l16.81-32a3.75,3.75,0,0,1,.4-.54,2.88,2.88,0,0,1,2.2-1l5.45,0a1.89,1.89,0,0,1,.83.15,2.07,2.07,0,0,1,1,2.21l-1.83,32c-.1.69-.6,1-1.49,1.08h-4l-.34,0c-.63-.13-.89-.57-.79-1.3l.55-8.23Zm2.89-5.83h5.38L259.71,22Z"/><path class="cls-28" d="M274.46,20.39h-1.28a1.85,1.85,0,0,1-.83-.2c-.56-.29-.77-.65-.64-1.1l.93-3.54a1.92,1.92,0,0,1,.17-.4,1.14,1.14,0,0,1,1-.6h9.67a13.47,13.47,0,0,1,5.47,1,6.3,6.3,0,0,1,3.95,6.21,13,13,0,0,1-.08,1.37,13.44,13.44,0,0,1-1.89,5.8A7.65,7.65,0,0,1,287,32.17a4.75,4.75,0,0,1,.81.74c.89,1.07,1.18,3,.89,5.64a14,14,0,0,1-.76,3.08,13.58,13.58,0,0,1-3.74,5.76,10.08,10.08,0,0,1-5.57,2.5c-.8.09-2.55.14-5.23.14h-5.14a1,1,0,0,1-.56-.14,1.17,1.17,0,0,1-.42-1.36Zm.68,23.81,1.15-.05a7.86,7.86,0,0,0,2.31-.43q2.47-.9,3.55-4.29t-.39-4.52c-.51-.44-1.87-.66-4.09-.66Zm3.77-14.85.9.08a6.4,6.4,0,0,0,.64,0q3.72-.31,4.69-5.53a6.51,6.51,0,0,0,.12-1.45c-.06-1.35-.85-2-2.37-2h-1.71Z"/><path class="cls-29" d="M300.47,15.64a1.39,1.39,0,0,1,1.46-1.09h4.15a1,1,0,0,1,.56.15,1.17,1.17,0,0,1,.42,1.38L299.87,44.2h9.38c1,0,1.34.54,1.13,1.57l-.64,2.89a1.94,1.94,0,0,1-.27.59,1.66,1.66,0,0,1-1.39.78h-15a1,1,0,0,1-1-1.51Z"/><path class="cls-30" d="M300.47,15.64a1.39,1.39,0,0,1,1.46-1.09h4.15a1,1,0,0,1,.56.15,1.17,1.17,0,0,1,.42,1.38L299.87,44.2h9.38c1,0,1.34.54,1.13,1.57l-.64,2.89a1.94,1.94,0,0,1-.27.59,1.66,1.66,0,0,1-1.39.78h-15a1,1,0,0,1-1-1.51Z"/><path class="cls-31" d="M323.92,27.88h8.36c.9,0,1.24.54,1,1.57l-.59,2.89a2.29,2.29,0,0,1-.24.59,1.6,1.6,0,0,1-1.33.79h-8.7L319.79,44.2h9.38c1,0,1.34.54,1.13,1.57l-.64,2.89a1.94,1.94,0,0,1-.27.59A1.67,1.67,0,0,1,328,50H313a1.17,1.17,0,0,1-.59-.14,1.15,1.15,0,0,1-.39-1.37l7.14-28.13h-1.74a2.22,2.22,0,0,1-.37,0c-.65-.11-.84-.69-.56-1.74l.78-3.09a3.43,3.43,0,0,1,.24-.71c.08-.18.33-.27.74-.27h18.15c1,0,1.34.54,1.12,1.57L336.88,19a1.84,1.84,0,0,1-.27.59,1.67,1.67,0,0,1-1.4.79h-9.38Z"/><path class="cls-32" d="M213.36,29.72l-4.59,3.85a7.32,7.32,0,0,0,1.61,1.23c1.05-.81,4.21-3.26,4.41-3.43s.31-.68-.22-1.29a1.1,1.1,0,0,0-.83-.46.74.74,0,0,0-.38.1"/><path class="cls-33" d="M214.42,30.25h0a1.09,1.09,0,0,1,.31.67.31.31,0,0,1-.09.24.29.29,0,0,1-.19.06,1.07,1.07,0,0,1-.69-.4,1.14,1.14,0,0,1-.31-.68.32.32,0,0,1,.09-.24.31.31,0,0,1,.19-.06,1,1,0,0,1,.69.41h0a1,1,0,0,0-.69-.41.31.31,0,0,0-.19.06.32.32,0,0,0-.09.24,1.14,1.14,0,0,0,.31.68,1.07,1.07,0,0,0,.69.4.29.29,0,0,0,.19-.06.31.31,0,0,0,.09-.24,1.09,1.09,0,0,0-.31-.67Z"/><path class="cls-34" d="M213.76,30.82h0a1.07,1.07,0,0,0,.69.4.29.29,0,0,0,.19-.06.31.31,0,0,0,.09-.24,1.09,1.09,0,0,0-.31-.67,1,1,0,0,0-.69-.41.31.31,0,0,0-.19.06.32.32,0,0,0-.09.24,1.14,1.14,0,0,0,.31.68h0a1.14,1.14,0,0,1-.31-.68.32.32,0,0,1,.09-.24.31.31,0,0,1,.19-.06,1,1,0,0,1,.69.41,1.09,1.09,0,0,1,.31.67.31.31,0,0,1-.09.24.29.29,0,0,1-.19.06,1.07,1.07,0,0,1-.69-.4Z"/><path class="cls-35" d="M212.44,27.93c-.65-.75-1.18-.37-1.18-.37l-4,3.72a8.22,8.22,0,0,0,.62,1.17l.49.49,4.16-3.63A1,1,0,0,0,212.44,27.93Z"/><path class="cls-36" d="M211.58,29.38l-3.64,3.18a6.57,6.57,0,0,0,.51.67,7.72,7.72,0,0,0,.82.8l3.82-3.1c.23-.21,0-.66-.44-1.21S211.58,29.38,211.58,29.38Z"/><path class="cls-37" d="M212.52,29.87h0a1,1,0,0,1,.28.61.26.26,0,0,1-.09.21.23.23,0,0,1-.16.06,1,1,0,0,1-.63-.36,1,1,0,0,1-.27-.62.25.25,0,0,1,.08-.21.22.22,0,0,1,.16,0,.94.94,0,0,1,.63.36h0a.94.94,0,0,0-.63-.36.22.22,0,0,0-.16,0,.25.25,0,0,0-.08.21,1,1,0,0,0,.27.62,1,1,0,0,0,.63.36.23.23,0,0,0,.16-.06.26.26,0,0,0,.09-.21,1,1,0,0,0-.28-.61Z"/><g class="cls-38"><path class="cls-39" d="M211.92,30.39h0a1,1,0,0,0,.63.36.23.23,0,0,0,.16-.06.25.25,0,0,0,.09-.21,1,1,0,0,0-.28-.61.94.94,0,0,0-.63-.36.22.22,0,0,0-.16,0,.26.26,0,0,0-.08.21,1.08,1.08,0,0,0,.27.62h0a1.08,1.08,0,0,1-.27-.62.26.26,0,0,1,.08-.21.22.22,0,0,1,.16,0,.94.94,0,0,1,.63.36,1,1,0,0,1,.28.61.25.25,0,0,1-.09.21.23.23,0,0,1-.16.06,1,1,0,0,1-.63-.36Z"/></g><path class="cls-40" d="M213.45,29.91a1.25,1.25,0,0,0,1.07,1.35l2.23-1.94L215.62,28Z"/><path class="cls-41" d="M215.62,28s.22-.14.72.45.41.85.41.85-.21.13-.74-.48S215.62,28,215.62,28Z"/><path class="cls-42" d="M211.31,28a1.29,1.29,0,0,0,.94,1.24l2.36-2.06-1-1.17Z"/><path class="cls-41" d="M213.59,26s.24-.09.72.43.3.74.3.74-.25,0-.68-.44S213.59,26,213.59,26Z"/><path class="cls-43" d="M211.65,29.56h0a1.12,1.12,0,0,0,1,1.21l2.3-2-1-1.17Z"/><path class="cls-41" d="M213.89,27.61s.24-.1.65.41.37.76.37.76-.22.1-.7-.46S213.89,27.61,213.89,27.61Z"/></svg>