<?xml version="1.0" encoding="UTF-8"?>
<svg width="24px" height="24px" viewBox="0 0 24 24" version="1.1" xmlns="http://www.w3.org/2000/svg" xmlns:xlink="http://www.w3.org/1999/xlink">
    <!-- Generator: Sketch 62 (91390) - https://sketch.com -->
    <title>Shape</title>
    <desc>Created with Sketch.</desc>
    <g id="Home" stroke="none" stroke-width="1" fill="none" fill-rule="evenodd">
        <g id="768" transform="translate(-623.000000, -100.000000)" fill="#434F5B" fill-rule="nonzero">
            <g id="Group" transform="translate(623.000000, 100.000000)">
                <path d="M22.0962525,15.2349243 C21.3008423,14.5360107 20.3362427,13.9321289 19.2290039,13.4401245 C18.7556763,13.2299194 18.2017823,13.4430542 17.9915771,13.9161987 C17.7813721,14.3893433 17.9945068,14.9432373 18.4676513,15.1536255 C19.4013061,15.5685425 20.2058716,16.0697021 20.8586426,16.6433716 C21.6633911,17.3505249 22.125,18.3744507 22.125,19.453125 L22.125,21.1875 C22.125,21.7044067 21.7044067,22.125 21.1875,22.125 L2.8125,22.125 C2.29559325,22.125 1.875,21.7044067 1.875,21.1875 L1.875,19.453125 C1.875,18.3744507 2.33660888,17.3505249 3.14135742,16.6433716 C4.088562,15.8109741 6.84832762,13.875 12,13.875 C15.8252564,13.875 18.9375,10.7627564 18.9375,6.9375 C18.9375,3.11224364 15.8252564,0 12,0 C8.17474364,0 5.0625,3.11224364 5.0625,6.9375 C5.0625,9.17376708 6.12634275,11.1659546 7.77429197,12.4354248 C4.75891116,13.0982666 2.88317869,14.3741455 1.90374755,15.2349243 C0.69396975,16.2978516 0,17.8352051 0,19.453125 L0,21.1875 C0,22.7384033 1.26159666,24 2.8125,24 L21.1875,24 C22.7384033,24 24,22.7384033 24,21.1875 L24,19.453125 C24,17.8352051 23.3060302,16.2978516 22.0962525,15.2349243 Z M6.9375,6.9375 C6.9375,4.14605714 9.20855714,1.875 12,1.875 C14.7914429,1.875 17.0625,4.14605714 17.0625,6.9375 C17.0625,9.72894286 14.7914429,12 12,12 C9.20855714,12 6.9375,9.72894286 6.9375,6.9375 Z" id="Shape"></path>
            </g>
        </g>
    </g>
</svg>